{"title":"National.Lampoons.The.Legend.Of.Awesomest.Maximus.2011.BRRip.Ac3","uid":7093572,"size":1563706884,"categoryP":"video","categoryS":"movies","magnet":"?xt=urn:btih:53cf08e494590d85ef511212c4e0768f0312deb1&amp;dn=National.Lampoons.The.Legend.Of.Awesomest.Maximus.2011.BRRip.Ac3&amp;tr=udp%3A%2F%2Ftracker.openbittorrent.com%3A80&amp;tr=udp%3A%2F%2Fopen.demonii.com%3A1337&amp;tr=udp%3A%2F%2Ftracker.coppersurfer.tk%3A6969&amp;tr=udp%3A%2F%2Fexodus.desync.com%3A6969","seeders":1,"leechers":0,"uploader":"LegendET","files":10,"time":1331463150,"description":"[center]\n[img]http://image.leechfrom.me/images/405sCznRYBu.jpeg[/img]\nComplete name                            : C:UsersrootDesktopNational.Lampoons.The.Legend.Of.Awesomest.Maximus.2011.BRRip.Ac3.Xvid.ANALOGN.L.T.L.O.A.M.BRR.ANALOG.avi\nFormat                                   : AVI\nFormat/Info                              : Audio Video Interleave\nFile size                                : 1.45 GiB\nDuration                                 : 1h 30mn\nOverall bit rate                         : 2 278 Kbps\nMovie name                               : N.L.T.L.O.A.M.BRR.ANALOG\nWriting application                      : VirtualDub build 32842/release\nCopyright                                : ANALOG\n\nVideo\nID                                       : 0\nFormat                                   : MPEG-4 Visual\nFormat profile                           : Advanced Simple@L5\nFormat settings, BVOP                    : 1\nFormat settings, QPel                    : No\nFormat settings, GMC                     : No warppoints\nFormat settings, Matrix                  : Default (H.263)\nMuxing mode                              : Packed bitstream\nCodec ID                                 : XVID\nCodec ID/Hint                            : XviD\nDuration                                 : 1h 30mn\nBit rate                                 : 1 885 Kbps\nWidth                                    : 720 pixels\nHeight                                   : 400 pixels\nDisplay aspect ratio                     : 16:9\nFrame rate                               : 23.976 fps\nColor space                              : YUV\nChroma subsampling                       : 4:2:0\nBit depth                                : 8 bits\nScan type                                : Progressive\nCompression mode                         : Lossy\nBits/(Pixel*Frame)                       : 0.273\nStream size                              : 1.20 GiB (83%)\nWriting library                          : XviD 64\n\nAudio\nID                                       : 1\nFormat                                   : AC-3\nFormat/Info                              : Audio Coding 3\nMode extension                           : CM (complete main)\nCodec ID                                 : 2000\nDuration                                 : 1h 30mn\nBit rate mode                            : Constant\nBit rate                                 : 384 Kbps\nChannel(s)                               : 6 channels\nChannel positions                        : Front: L C R, Side: L R, LFE\nSampling rate                            : 48.0 KHz\nBit depth                                : 16 bits\nCompression mode                         : Lossy\nStream size                              : 250 MiB (17%)\nAlignment                                : Aligned on interleaves\nInterleave, duration                     : 42 ms (1.00 video frame)\nInterleave, preload duration             : 512 ms\nLanguage                                 : English\nSample                                   : Yes\nSource                                   : LEVERAGE 720p  THANX \n\n[img]http://image.leechfrom.me/images/8191.png[/img]\n[img]http://image.leechfrom.me/images/6682.png[/img]\n[img]http://image.leechfrom.me/images/4623.png[/img]\n[img]http://image.leechfrom.me/images/2324.png[/img]\n[img]http://image.leechfrom.me/images/5785.png[/img]\n[img]http://image.leechfrom.me/images/3726.png[/img][/center]","torrent":{"xt":"urn:btih:53cf08e494590d85ef511212c4e0768f0312deb1","amp;dn":"National.Lampoons.The.Legend.Of.Awesomest.Maximus.2011.BRRip.Ac3","amp;tr":["udp%3A%2F%2Ftracker.openbittorrent.com%3A80","udp%3A%2F%2Fopen.demonii.com%3A1337","udp%3A%2F%2Ftracker.coppersurfer.tk%3A6969","udp%3A%2F%2Fexodus.desync.com%3A6969"],"infoHash":"53cf08e494590d85ef511212c4e0768f0312deb1","infoHashBuffer":{"type":"Buffer","data":[83,207,8,228,148,89,13,133,239,81,18,18,196,224,118,143,3,18,222,177]},"announce":[],"urlList":[]}}